<?xml version="1.0" encoding="UTF-8" standalone="no"?>
<svg
   xmlns:dc="http://purl.org/dc/elements/1.1/"
   xmlns:cc="http://creativecommons.org/ns#"
   xmlns:rdf="http://www.w3.org/1999/02/22-rdf-syntax-ns#"
   xmlns:svg="http://www.w3.org/2000/svg"
   xmlns="http://www.w3.org/2000/svg"
   viewBox="0 0 200.884 294.508"
   height="294.508"
   width="200.884"
   xml:space="preserve"
   id="svg2"
   version="1.1"><metadata
     id="metadata8"><rdf:RDF><cc:Work
         rdf:about=""><dc:format>image/svg+xml</dc:format><dc:type
           rdf:resource="http://purl.org/dc/dcmitype/StillImage" /></cc:Work></rdf:RDF></metadata><defs
     id="defs6" /><g
     transform="matrix(1.3333333,0,0,-1.3333333,0,294.508)"
     id="g10"><g
       transform="translate(43.117,15.411)"
       id="g12"><g
         id="g14"><g
           id="g16"><g
             id="g18"><path
               id="path20"
               style="fill:#ccffcc;fill-opacity:1;fill-rule:nonzero;stroke:#bfbfbf;stroke-width:0.3985;stroke-linecap:butt;stroke-linejoin:miter;stroke-miterlimit:10;stroke-dasharray:none;stroke-opacity:1"
               d="m -28.3468,85.04042 3.54335,-6.6438 3.54335,-5.75795 3.54336,-4.87208 3.54335,-3.98629 3.54335,-3.10043 3.54335,-2.21458 3.54336,-1.32877 L 0,56.69362 l 3.54333,0.4429 3.54336,1.32877 3.54335,2.21458 3.54335,3.10043 3.54335,3.98629 3.54336,4.87208 3.54335,5.75795 3.54335,6.6438 3.54334,7.52962 3.54335,8.41545 3.54336,9.3013 3.54335,10.18713 3.54335,11.07297 3.54335,11.95881 3.54335,12.84466 3.54337,13.7305 V 85.04042 L 53.15025,81.49707 49.6069,77.95372 46.06355,74.41037 42.5202,70.867 38.97685,67.32365 35.43349,63.7803 31.89014,60.23695 28.3468,56.69362 24.80345,53.15025 21.2601,49.6069 17.71674,46.06355 14.17339,42.5202 10.63004,38.97685 7.08669,35.43349 3.54333,31.89014 0,28.3468 -3.54333,24.80345 -7.08669,21.2601 -10.63004,17.71674 -14.17339,14.17339 -17.71674,10.63004 -21.2601,7.08669 -24.80345,3.54333 -28.3468,0 Z" /></g><g
             id="g22"><path
               id="path24"
               style="fill:none;stroke:#a8a7a7;stroke-width:0.79701;stroke-linecap:butt;stroke-linejoin:miter;stroke-miterlimit:10;stroke-dasharray:none;stroke-opacity:1"
               d="M -42.5202,0 H 82.45015" /><g
               transform="translate(82.45015)"
               id="g26"><g
                 id="g28"><path
                   id="path30"
                   style="fill:#a8a7a7;fill-opacity:1;fill-rule:nonzero;stroke:none"
                   d="M 2.59026,0 -1.55415,2.0722 0,0 -1.55415,-2.0722" /></g></g><g
               id="g32"><g
                 transform="translate(81.922,-8.732)"
                 id="g34"><g
                   id="g36"><g
                     transform="translate(-125.039,-6.679)"
                     id="g38"><text
                       id="text42"
                       style="font-variant:normal;font-weight:normal;font-size:10.90909958px;font-family:CMMI10;-inkscape-font-specification:CMMI10;writing-mode:lr-tb;fill:#a8a7a7;fill-opacity:1;fill-rule:nonzero;stroke:none"
                       transform="matrix(1,0,0,-1,125.039,6.679)"><tspan
                         id="tspan40"
                         y="0"
                         x="0">x</tspan></text>
<g
                       transform="translate(125.039,6.679)"
                       id="g44" /></g></g><g
                   transform="translate(-81.922,8.732)"
                   id="g46" /></g></g></g><g
             id="g48"><path
               id="path50"
               style="fill:none;stroke:#a8a7a7;stroke-width:0.79701;stroke-linecap:butt;stroke-linejoin:miter;stroke-miterlimit:10;stroke-dasharray:none;stroke-opacity:1"
               d="M 0,-14.17339 V 195.8374" /><g
               transform="rotate(90,-97.9187,97.9187)"
               id="g52"><g
                 id="g54"><path
                   id="path56"
                   style="fill:#a8a7a7;fill-opacity:1;fill-rule:nonzero;stroke:none"
                   d="M 2.59026,0 -1.55415,2.0722 0,0 -1.55415,-2.0722" /></g></g><g
               id="g58"><g
                 transform="translate(-9.774,197.137)"
                 id="g60"><g
                   id="g62"><g
                     transform="translate(-33.343,-212.548)"
                     id="g64"><text
                       id="text68"
                       style="font-variant:normal;font-weight:normal;font-size:10.90909958px;font-family:CMMI10;-inkscape-font-specification:CMMI10;writing-mode:lr-tb;fill:#a8a7a7;fill-opacity:1;fill-rule:nonzero;stroke:none"
                       transform="matrix(1,0,0,-1,33.343,212.548)"><tspan
                         id="tspan66"
                         y="0"
                         x="0">y</tspan></text>
<g
                       transform="translate(33.343,212.548)"
                       id="g70" /></g></g><g
                   transform="translate(9.774,-197.137)"
                   id="g72" /></g></g></g><g
             id="g74"><g
               transform="translate(-35.316,-10.866)"
               id="g76"><g
                 id="g78"><g
                   transform="translate(-7.801,-4.545)"
                   id="g80"><text
                     id="text84"
                     style="font-variant:normal;font-weight:normal;font-size:10.90909958px;font-family:CMSY10;-inkscape-font-specification:CMSY10;writing-mode:lr-tb;fill:#a8a7a7;fill-opacity:1;fill-rule:nonzero;stroke:none"
                     transform="matrix(1,0,0,-1,7.801,4.545)"><tspan
                       id="tspan82"
                       y="0"
                       x="0">−</tspan></text>
<text
                     id="text88"
                     style="font-variant:normal;font-weight:normal;font-size:10.90909958px;font-family:CMR10;-inkscape-font-specification:CMR10;writing-mode:lr-tb;fill:#a8a7a7;fill-opacity:1;fill-rule:nonzero;stroke:none"
                     transform="matrix(1,0,0,-1,16.286,4.545)"><tspan
                       id="tspan86"
                       y="0"
                       x="0">1</tspan></text>
<g
                     transform="translate(7.801,4.545)"
                     id="g90" /></g></g><g
                 transform="translate(35.316,10.866)"
                 id="g92" /></g></g><g
             id="g94"><g
               transform="translate(53.966,-10.866)"
               id="g96"><g
                 id="g98"><g
                   transform="translate(-97.083,-4.545)"
                   id="g100"><text
                     id="text104"
                     style="font-variant:normal;font-weight:normal;font-size:10.90909958px;font-family:CMR10;-inkscape-font-specification:CMR10;writing-mode:lr-tb;fill:#a8a7a7;fill-opacity:1;fill-rule:nonzero;stroke:none"
                     transform="matrix(1,0,0,-1,97.083,4.545)"><tspan
                       id="tspan102"
                       y="0"
                       x="0">2</tspan></text>
<g
                     transform="translate(97.083,4.545)"
                     id="g106" /></g></g><g
                 transform="translate(-53.966,10.866)"
                 id="g108" /></g></g><g
             id="g110"><g
               id="g112" /><g
               transform="translate(-18.264,28.871)"
               id="g114"><g
                 id="g116"><g
                   transform="translate(-24.853,-44.282)"
                   id="g118"><text
                     id="text122"
                     style="font-variant:normal;font-weight:normal;font-size:10.90909958px;font-family:CMMI10;-inkscape-font-specification:CMMI10;writing-mode:lr-tb;fill:#00b300;fill-opacity:1;fill-rule:nonzero;stroke:none"
                     transform="matrix(1,0,0,-1,24.853,44.282)"><tspan
                       id="tspan120"
                       y="0"
                       x="0">A</tspan></text>
<g
                     transform="translate(24.853,44.282)"
                     id="g124" /></g></g><g
                 transform="translate(18.264,-28.871)"
                 id="g126" /></g></g><g
             id="g128"><path
               id="path130"
               style="fill:none;stroke:#ff8000;stroke-width:1.19553006;stroke-linecap:butt;stroke-linejoin:miter;stroke-miterlimit:10;stroke-dasharray:none;stroke-opacity:1"
               d="m -42.5202,120.47392 c 0,0 3.1573,-9.17224 4.36993,-12.43632 1.21263,-3.2641 3.1573,-8.19884 4.36994,-11.08898 1.21263,-2.89015 3.15728,-7.22494 4.36991,-9.74119 1.21264,-2.51623 3.15731,-6.25183 4.36994,-8.39427 1.21263,-2.14243 3.1573,-5.27843 4.36993,-7.04691 1.21263,-1.76848 3.15731,-4.30452 4.36994,-5.69911 1.21263,-1.39461 3.15728,-3.33144 4.36991,-4.3522 1.21264,-1.02077 3.15732,-2.35798 4.36995,-3.00484 1.21264,-0.64688 3.15731,-1.3845 4.36994,-1.65749 1.21263,-0.27301 3.15729,-0.41101 4.36991,-0.31011 1.21262,0.10087 3.15728,0.56245 4.36991,1.03721 1.21263,0.47475 3.1573,1.53592 4.36994,2.38458 1.21263,0.84865 3.1573,2.50946 4.36993,3.73195 1.21263,1.22247 3.1573,3.4825 4.36993,5.07886 1.21263,1.59636 3.15729,4.45633 4.36992,6.42665 1.21263,1.97031 3.15731,5.42987 4.36994,7.774 1.21263,2.34413 3.1573,6.40291 4.36993,9.12093 1.21263,2.71802 3.1573,7.37674 4.36993,10.4687 1.21264,3.09197 3.15729,8.3503 4.36992,11.81609 1.21265,3.46579 3.15731,9.32336 4.36994,13.16298 1.21263,3.83963 3.1573,10.29681 4.36993,14.51037 1.21263,4.21356 3.1573,11.27068 4.36994,15.85814 1.21263,4.58745 3.1573,12.24378 4.36994,17.20505 1.21264,4.96127 4.36992,18.55241 4.36992,18.55241" /><g
               id="g132"><g
                 transform="translate(66.591,191.14)"
                 id="g134"><g
                   id="g136"><g
                     transform="translate(-109.708,-206.551)"
                     id="g138"><text
                       id="text142"
                       style="font-variant:normal;font-weight:normal;font-size:10.90909958px;font-family:CMMI10;-inkscape-font-specification:CMMI10;writing-mode:lr-tb;fill:#ff8000;fill-opacity:1;fill-rule:nonzero;stroke:none"
                       transform="matrix(1,0,0,-1,109.708,206.551)"><tspan
                         id="tspan140"
                         y="0"
                         x="0">f</tspan></text>
<text
                       id="text146"
                       style="font-variant:normal;font-weight:normal;font-size:10.90909958px;font-family:CMR10;-inkscape-font-specification:CMR10;writing-mode:lr-tb;fill:#ff8000;fill-opacity:1;fill-rule:nonzero;stroke:none"
                       transform="matrix(1,0,0,-1,116.224,206.551)"><tspan
                         id="tspan144"
                         y="0"
                         x="0">(</tspan></text>
<text
                       id="text150"
                       style="font-variant:normal;font-weight:normal;font-size:10.90909958px;font-family:CMMI10;-inkscape-font-specification:CMMI10;writing-mode:lr-tb;fill:#ff8000;fill-opacity:1;fill-rule:nonzero;stroke:none"
                       transform="matrix(1,0,0,-1,120.466,206.551)"><tspan
                         id="tspan148"
                         y="0"
                         x="0">x</tspan></text>
<text
                       id="text154"
                       style="font-variant:normal;font-weight:normal;font-size:10.90909958px;font-family:CMR10;-inkscape-font-specification:CMR10;writing-mode:lr-tb;fill:#ff8000;fill-opacity:1;fill-rule:nonzero;stroke:none"
                       transform="matrix(1,0,0,-1,126.701,206.551)"><tspan
                         id="tspan152"
                         y="0"
                         x="0">)</tspan></text>
<g
                       transform="translate(109.708,206.551)"
                       id="g156" /></g></g><g
                   transform="translate(-66.591,-191.14)"
                   id="g158" /></g></g></g><g
             id="g160"><path
               id="path162"
               style="fill:none;stroke:#3990b5;stroke-width:1.19553006;stroke-linecap:butt;stroke-linejoin:miter;stroke-miterlimit:10;stroke-dasharray:none;stroke-opacity:1"
               d="m -42.5202,-14.17339 c 0,0 3.6692,3.66919 5.07843,5.07843 1.40924,1.40925 3.66919,3.66918 5.07843,5.07842 1.40924,1.40924 3.66919,3.66919 5.07843,5.0784 1.40924,1.40924 3.66919,3.6692 5.07843,5.07844 1.40924,1.40925 3.66918,3.66918 5.07841,5.07842 1.40924,1.40924 3.66921,3.66919 5.07845,5.07843 1.40922,1.40924 3.66919,3.6692 5.07843,5.07843 1.40924,1.40924 3.66917,3.66919 5.07841,5.07843 1.40924,1.40923 3.66916,3.66919 5.0784,5.07843 1.40924,1.40924 3.66921,3.66919 5.07845,5.07843 1.40923,1.40924 3.66917,3.66917 5.07841,5.07842 1.40924,1.40924 3.66919,3.6692 5.07843,5.07844 1.40924,1.40923 3.66919,3.66919 5.07843,5.07843 1.40924,1.40924 3.66919,3.66918 5.07842,5.07842 1.40924,1.40924 3.6692,3.66919 5.07844,5.07842 1.40924,1.40925 3.6692,3.66921 5.07843,5.07844 1.40925,1.40924 3.66918,3.66919 5.07842,5.07843 1.40924,1.40923 3.6692,3.66919 5.07843,5.07843 1.40924,1.40924 3.6692,3.66919 5.07844,5.07843 1.40923,1.40924 3.66918,3.66919 5.07842,5.07841 1.40924,1.40924 3.66919,3.66921 5.07843,5.07845 1.40924,1.40922 3.66919,3.66919 5.07843,5.07843 1.40924,1.40924 3.66919,3.66917 5.07843,5.07841 1.40923,1.40924 5.07843,5.07843 5.07843,5.07843" /><g
               id="g164"><g
                 transform="translate(83.595,104.98)"
                 id="g166"><g
                   id="g168"><g
                     transform="translate(-126.712,-120.391)"
                     id="g170"><text
                       id="text174"
                       style="font-variant:normal;font-weight:normal;font-size:10.90909958px;font-family:CMMI10;-inkscape-font-specification:CMMI10;writing-mode:lr-tb;fill:#3990b5;fill-opacity:1;fill-rule:nonzero;stroke:none"
                       transform="matrix(1,0,0,-1,126.712,120.391)"><tspan
                         id="tspan172"
                         y="0"
                         x="0">g</tspan></text>
<text
                       id="text178"
                       style="font-variant:normal;font-weight:normal;font-size:10.90909958px;font-family:CMR10;-inkscape-font-specification:CMR10;writing-mode:lr-tb;fill:#3990b5;fill-opacity:1;fill-rule:nonzero;stroke:none"
                       transform="matrix(1,0,0,-1,132.307,120.391)"><tspan
                         id="tspan176"
                         y="0"
                         x="0">(</tspan></text>
<text
                       id="text182"
                       style="font-variant:normal;font-weight:normal;font-size:10.90909958px;font-family:CMMI10;-inkscape-font-specification:CMMI10;writing-mode:lr-tb;fill:#3990b5;fill-opacity:1;fill-rule:nonzero;stroke:none"
                       transform="matrix(1,0,0,-1,136.549,120.391)"><tspan
                         id="tspan180"
                         y="0"
                         x="0">x</tspan></text>
<text
                       id="text186"
                       style="font-variant:normal;font-weight:normal;font-size:10.90909958px;font-family:CMR10;-inkscape-font-specification:CMR10;writing-mode:lr-tb;fill:#3990b5;fill-opacity:1;fill-rule:nonzero;stroke:none"
                       transform="matrix(1,0,0,-1,142.784,120.391)"><tspan
                         id="tspan184"
                         y="0"
                         x="0">)</tspan></text>
<g
                       transform="translate(126.712,120.391)"
                       id="g188" /></g></g><g
                   transform="translate(-83.595,-104.98)"
                   id="g190" /></g></g></g></g></g></g></g></svg>