<svg width="1248" height="993" xmlns="http://www.w3.org/2000/svg" xmlns:xlink="http://www.w3.org/1999/xlink"
    xml:space="preserve" overflow="hidden">
    <defs>
        <filter id="fx0" x="-10%" y="-10%" width="120%" height="120%" filterUnits="userSpaceOnUse"
            primitiveUnits="userSpaceOnUse">
            <feComponentTransfer color-interpolation-filters="sRGB">
                <feFuncR type="discrete" tableValues="0 0" />
                <feFuncG type="discrete" tableValues="0 0" />
                <feFuncB type="discrete" tableValues="0 0" />
                <feFuncA type="linear" slope="0.2" intercept="0" />
            </feComponentTransfer>
            <feGaussianBlur stdDeviation="7.63889 7.63889" />
        </filter>
        <filter id="fx1" x="-10%" y="-10%" width="120%" height="120%" filterUnits="userSpaceOnUse"
            primitiveUnits="userSpaceOnUse">
            <feComponentTransfer color-interpolation-filters="sRGB">
                <feFuncR type="discrete" tableValues="0 0" />
                <feFuncG type="discrete" tableValues="0 0" />
                <feFuncB type="discrete" tableValues="0 0" />
                <feFuncA type="linear" slope="0.2" intercept="0" />
            </feComponentTransfer>
            <feGaussianBlur stdDeviation="7.63889 7.63889" />
        </filter>
        <filter id="fx2" x="-10%" y="-10%" width="120%" height="120%" filterUnits="userSpaceOnUse"
            primitiveUnits="userSpaceOnUse">
            <feComponentTransfer color-interpolation-filters="sRGB">
                <feFuncR type="discrete" tableValues="0 0" />
                <feFuncG type="discrete" tableValues="0 0" />
                <feFuncB type="discrete" tableValues="0 0" />
                <feFuncA type="linear" slope="0.2" intercept="0" />
            </feComponentTransfer>
            <feGaussianBlur stdDeviation="7.63889 7.63889" />
        </filter>
        <filter id="fx3" x="-10%" y="-10%" width="120%" height="120%" filterUnits="userSpaceOnUse"
            primitiveUnits="userSpaceOnUse">
            <feComponentTransfer color-interpolation-filters="sRGB">
                <feFuncR type="discrete" tableValues="0 0" />
                <feFuncG type="discrete" tableValues="0 0" />
                <feFuncB type="discrete" tableValues="0 0" />
                <feFuncA type="linear" slope="0.2" intercept="0" />
            </feComponentTransfer>
            <feGaussianBlur stdDeviation="7.63889 7.63889" />
        </filter>
        <filter id="fx4" x="-10%" y="-10%" width="120%" height="120%" filterUnits="userSpaceOnUse"
            primitiveUnits="userSpaceOnUse">
            <feComponentTransfer color-interpolation-filters="sRGB">
                <feFuncR type="discrete" tableValues="0 0" />
                <feFuncG type="discrete" tableValues="0 0" />
                <feFuncB type="discrete" tableValues="0 0" />
                <feFuncA type="linear" slope="0.2" intercept="0" />
            </feComponentTransfer>
            <feGaussianBlur stdDeviation="7.63889 7.63889" />
        </filter>
        <filter id="fx5" x="-10%" y="-10%" width="120%" height="120%" filterUnits="userSpaceOnUse"
            primitiveUnits="userSpaceOnUse">
            <feComponentTransfer color-interpolation-filters="sRGB">
                <feFuncR type="discrete" tableValues="0 0" />
                <feFuncG type="discrete" tableValues="0 0" />
                <feFuncB type="discrete" tableValues="0 0" />
                <feFuncA type="linear" slope="0.2" intercept="0" />
            </feComponentTransfer>
            <feGaussianBlur stdDeviation="7.63889 7.63889" />
        </filter>
        <filter id="fx6" x="-10%" y="-10%" width="120%" height="120%" filterUnits="userSpaceOnUse"
            primitiveUnits="userSpaceOnUse">
            <feComponentTransfer color-interpolation-filters="sRGB">
                <feFuncR type="discrete" tableValues="0 0" />
                <feFuncG type="discrete" tableValues="0 0" />
                <feFuncB type="discrete" tableValues="0 0" />
                <feFuncA type="linear" slope="0.2" intercept="0" />
            </feComponentTransfer>
            <feGaussianBlur stdDeviation="7.63889 7.63889" />
        </filter>
        <clipPath id="clip7">
            <rect x="1765" y="902" width="1248" height="993" />
        </clipPath>
    </defs>
    <g clip-path="url(#clip7)" transform="translate(-1765 -902)">
        <!-- <rect x="1766" y="903" width="1245" height="990" fill="#FFFFFF" /> -->
        <g>
            <g filter="url(#fx0)" transform="translate(2361 986)">
                <g>
                    <path
                        d="M23.5479 24.01C239.139 24.01 413.91 198.781 413.91 414.372 413.91 479.568 397.582 543.725 366.415 600.988L23.5479 414.372Z"
                        fill="#4472C4" fill-rule="evenodd" />
                </g>
            </g>
        </g>
        <g>
            <g filter="url(#fx1)" transform="translate(2361 1371)">
                <g>
                    <path d="M366.88 210.455C324.216 288.842 255.98 350.243 173.541 384.429L24.0136 23.8398Z"
                        fill="#ED7D31" fill-rule="evenodd" />
                </g>
            </g>
        </g>
        <g>
            <g filter="url(#fx2)" transform="translate(2296 1371)">
                <g>
                    <path d="M241.095 384.137C172.599 412.54 97.4311 420.847 24.3866 408.086L91.5677 23.5479Z"
                        fill="#A5A5A5" fill-rule="evenodd" />
                </g>
            </g>
        </g>
        <g>
            <g filter="url(#fx3)" transform="translate(1980 1371)">
                <g>
                    <path d="M344.996 408.143C174.652 378.383 44.1881 240.099 24.383 68.3134L412.177 23.605Z"
                        fill="#FFC000" fill-rule="evenodd" />
                </g>
            </g>
        </g>
        <g>
            <g filter="url(#fx4)" transform="translate(1978 1201)">
                <g>
                    <path d="M26.4087 243.358C17.7248 168.035 31.1647 91.8137 65.0868 24.0036L414.202 198.649Z"
                        fill="#5B9BD5" fill-rule="evenodd" />
                </g>
            </g>
        </g>
        <g>
            <g filter="url(#fx5)" transform="translate(2019 1006)">
                <g>
                    <path d="M23.6819 221.376C70.8102 127.167 154.013 56.0037 254.389 24.0511L372.798 396.022Z"
                        fill="#70AD47" fill-rule="evenodd" />
                </g>
            </g>
        </g>
        <g>
            <g filter="url(#fx6)" transform="translate(2247 988)">
                <g>
                    <path d="M24.1276 42.2315C62.4153 30.0436 102.355 23.84 142.536 23.84L142.536 414.202Z"
                        fill="#7030A0" fill-rule="evenodd" />
                </g>
            </g>
        </g>
        <g>
            <path
                d="M2388.38 1015.67C2599.74 1015.67 2771.08 1187.01 2771.08 1398.38 2771.08 1462.29 2755.07 1525.19 2724.52 1581.33L2388.38 1398.38Z"
                fill="#4472C4" fill-rule="evenodd" />
        </g>
        <g>
            <path d="M2724.52 1581.33C2682.69 1658.18 2615.79 1718.38 2534.97 1751.89L2388.38 1398.38Z" fill="#ED7D31"
                fill-rule="evenodd" />
        </g>
        <g>
            <path d="M2534.97 1751.89C2467.82 1779.74 2394.12 1787.88 2322.51 1775.37L2388.38 1398.38Z" fill="#A5A5A5"
                fill-rule="evenodd" />
        </g>
        <g>
            <path d="M2322.51 1775.37C2155.51 1746.2 2027.6 1610.62 2008.18 1442.21L2388.38 1398.38Z" fill="#FFC000"
                fill-rule="evenodd" />
        </g>
        <g>
            <path d="M2008.19 1442.21C1999.67 1368.36 2012.85 1293.63 2046.1 1227.15L2388.38 1398.38Z" fill="#5B9BD5"
                fill-rule="evenodd" />
        </g>
        <g>
            <path d="M2046.1 1227.15C2092.31 1134.79 2173.88 1065.02 2272.29 1033.7L2388.38 1398.38Z" fill="#70AD47"
                fill-rule="evenodd" />
        </g>
        <g>
            <path d="M2272.29 1033.7C2309.83 1021.75 2348.98 1015.67 2388.38 1015.67L2388.38 1398.38Z" fill="#7030A0"
                fill-rule="evenodd" />
        </g>
        <g><text fill="#4472C4" font-family="Calibri,Calibri_MSFontService,sans-serif" font-weight="700" font-size="46"
                transform="matrix(1 0 0 1 2749.9 1190)">CDU/CSU</text></g>
        <g><text fill="#ED7D31" font-family="Calibri,Calibri_MSFontService,sans-serif" font-weight="700" font-size="46"
                transform="matrix(1 0 0 1 2672.14 1745)">FDP</text></g>
        <g><text fill="#A5A5A5" font-family="Calibri,Calibri_MSFontService,sans-serif" font-weight="700" font-size="46"
                transform="matrix(1 0 0 1 2398.24 1845)">Grüne</text></g>
        <g><text fill="#FFC000" font-family="Calibri,Calibri_MSFontService,sans-serif" font-weight="700" font-size="46"
                transform="matrix(1 0 0 1 2006.15 1720)">SPD</text></g>
        <g><text fill="#5B9BD5" font-family="Calibri,Calibri_MSFontService,sans-serif" font-weight="700" font-size="46"
                transform="matrix(1 0 0 1 1877 1339)">Linke</text></g>
        <g><text fill="#70AD47" font-family="Calibri,Calibri_MSFontService,sans-serif" font-weight="700" font-size="46"
                transform="matrix(1 0 0 1 2041.07 1077)">AfD</text></g>
        <g><text fill="#7030A0" font-family="Calibri,Calibri_MSFontService,sans-serif" font-weight="700" font-size="46"
                transform="matrix(1 0 0 1 2201.28 986)">Sonstige</text></g>
        <!-- <rect x="1766.5" y="903.5" width="1245" height="990" stroke="#D9D9D9" stroke-width="3.4375"
            stroke-linejoin="round" stroke-miterlimit="10" fill="none" /> -->
    </g>
</svg>