<svg viewBox="0 0 1653 993" xmlns="http://www.w3.org/2000/svg" xmlns:xlink="http://www.w3.org/1999/xlink"
    xml:space="preserve" overflow="hidden" style="Background: #454545">
    <defs>
        <clipPath id="clip0">
            <rect x="1146" y="1227" width="1653" height="993" />
        </clipPath>
        <clipPath id="clip1">
            <rect x="1197" y="1278" width="1583" height="892" />
        </clipPath>
    </defs>
    <g clip-path="url(#clip0)" transform="translate(-1146 -1227)">
        <!-- <rect x="1147" y="1228" width="1650" height="990" fill="#FFFFFF" /> -->
        <g clip-path="url(#clip1)">
            <path d="M1381.05 1880.06 1197 1880.06 1197 1565.05 1381.05 1565.05Z" fill="#548235" />
        </g>
        <g>
            <path d="M1697.06 1880.06 1381.05 1880.06 1381.05 1565.05 1697.06 1565.05Z" fill="#C00000" />
        </g>
        <g>
            <path d="M1882.06 1880.06 1697.06 1880.06 1697.06 1565.05 1882.06 1565.05Z" fill="#2F5597" />
        </g>
        <g>
            <path d="M2434.08 1880.06 1882.06 1880.06 1882.06 1565.05 2434.08 1565.05Z" fill="#0D0D0D" />
        </g>
        <g>
            <path d="M2513.08 1880.06 2434.08 1880.06 2434.08 1565.05 2513.08 1565.05Z" fill="#FF00FF" />
        </g>
        <g>
            <rect x="2583" y="1557" width="23" height="23" fill="#548235" />
        </g>
        <g><text fill="#a7a7a8" font-family="Calibri,Calibri_MSFontService,sans-serif" font-weight="400" font-size="41"
                transform="matrix(1 0 0 1 2615.16 1580)">grün</text></g>
        <g>
            <rect x="2583" y="1634" width="23" height="23" fill="#C00000" />
        </g>
        <g><text fill="#a7a7a8" font-family="Calibri,Calibri_MSFontService,sans-serif" font-weight="400" font-size="41"
                transform="matrix(1 0 0 1 2615.16 1657)">rot</text></g>
        <g>
            <rect x="2583" y="1712" width="23" height="22" fill="#2F5597" />
        </g>
        <g><text fill="#a7a7a8" font-family="Calibri,Calibri_MSFontService,sans-serif" font-weight="400" font-size="41"
                transform="matrix(1 0 0 1 2615.16 1734)">blau</text></g>
        <g>
            <rect x="2583" y="1789" width="23" height="23" fill="#0D0D0D" />
        </g>
        <g><text fill="#a7a7a8" font-family="Calibri,Calibri_MSFontService,sans-serif" font-weight="400" font-size="41"
                transform="matrix(1 0 0 1 2615.16 1812)">schwarz</text></g>
        <g>
            <rect x="2583" y="1866" width="23" height="23" fill="#FF00FF" />
        </g>
        <g><text fill="#a7a7a8" font-family="Calibri,Calibri_MSFontService,sans-serif" font-weight="400" font-size="41"
                transform="matrix(1 0 0 1 2615.16 1889)">pink</text></g>
        <!-- <rect x="1147.5" y="1228.5" width="1650" height="990" stroke="#D9D9D9" stroke-width="3.4375"
            stroke-linejoin="round" stroke-miterlimit="10" fill="none" /> -->
    </g>
</svg>