<svg viewBox="0 0 1345 993" xmlns="http://www.w3.org/2000/svg" xmlns:xlink="http://www.w3.org/1999/xlink"
    xml:space="preserve" overflow="hidden" style="Background: #454545">
    <defs>
        <clipPath id="clip0">
            <rect x="1146" y="201" width="1345" height="993" />
        </clipPath>
        <linearGradient x1="1902.83" y1="252.542" x2="1902.83" y2="644.703" gradientUnits="userSpaceOnUse"
            spreadMethod="reflect" id="fill1">
            <stop offset="0" stop-color="#6083CB" />
            <stop offset="0.5" stop-color="#3E70CA" />
            <stop offset="1" stop-color="#2E61BA" />
        </linearGradient>
        <linearGradient x1="1971.05" y1="291.378" x2="1971.05" y2="644.703" gradientUnits="userSpaceOnUse"
            spreadMethod="reflect" id="fill2">
            <stop offset="0" stop-color="#F18C55" />
            <stop offset="0.5" stop-color="#F67B28" />
            <stop offset="1" stop-color="#E56B17" />
        </linearGradient>
        <linearGradient x1="2013.84" y1="400.194" x2="2013.84" y2="998.027" gradientUnits="userSpaceOnUse"
            spreadMethod="reflect" id="fill3">
            <stop offset="0" stop-color="#AFAFAF" />
            <stop offset="0.5" stop-color="#A5A5A5" />
            <stop offset="1" stop-color="#929292" />
        </linearGradient>
        <linearGradient x1="1711.66" y1="644.703" x2="1711.66" y2="1036.95" gradientUnits="userSpaceOnUse"
            spreadMethod="reflect" id="fill4">
            <stop offset="0" stop-color="#FFC746" />
            <stop offset="0.5" stop-color="#FFC600" />
            <stop offset="1" stop-color="#E5B600" />
        </linearGradient>
        <linearGradient x1="1621.65" y1="291.378" x2="1621.65" y2="731.967" gradientUnits="userSpaceOnUse"
            spreadMethod="reflect" id="fill5">
            <stop offset="0" stop-color="#71A6DB" />
            <stop offset="0.5" stop-color="#559BDB" />
            <stop offset="1" stop-color="#438AC9" />
        </linearGradient>
        <linearGradient x1="1732.67" y1="252.542" x2="1732.67" y2="644.703" gradientUnits="userSpaceOnUse"
            spreadMethod="reflect" id="fill6">
            <stop offset="0" stop-color="#81B861" />
            <stop offset="0.5" stop-color="#6FB242" />
            <stop offset="1" stop-color="#61A235" />
        </linearGradient>
        <linearGradient x1="1449" y1="1115" x2="1449" y2="1137" gradientUnits="userSpaceOnUse" spreadMethod="reflect"
            id="fill7">
            <stop offset="0" stop-color="#6083CB" />
            <stop offset="0.5" stop-color="#3E70CA" />
            <stop offset="1" stop-color="#2E61BA" />
        </linearGradient>
        <linearGradient x1="1584" y1="1115" x2="1584" y2="1137" gradientUnits="userSpaceOnUse" spreadMethod="reflect"
            id="fill8">
            <stop offset="0" stop-color="#F18C55" />
            <stop offset="0.5" stop-color="#F67B28" />
            <stop offset="1" stop-color="#E56B17" />
        </linearGradient>
        <linearGradient x1="1719" y1="1115" x2="1719" y2="1137" gradientUnits="userSpaceOnUse" spreadMethod="reflect"
            id="fill9">
            <stop offset="0" stop-color="#AFAFAF" />
            <stop offset="0.5" stop-color="#A5A5A5" />
            <stop offset="1" stop-color="#929292" />
        </linearGradient>
        <linearGradient x1="1853.5" y1="1115" x2="1853.5" y2="1137" gradientUnits="userSpaceOnUse"
            spreadMethod="reflect" id="fill10">
            <stop offset="0" stop-color="#FFC746" />
            <stop offset="0.5" stop-color="#FFC600" />
            <stop offset="1" stop-color="#E5B600" />
        </linearGradient>
        <linearGradient x1="1988.5" y1="1115" x2="1988.5" y2="1137" gradientUnits="userSpaceOnUse"
            spreadMethod="reflect" id="fill11">
            <stop offset="0" stop-color="#71A6DB" />
            <stop offset="0.5" stop-color="#559BDB" />
            <stop offset="1" stop-color="#438AC9" />
        </linearGradient>
        <linearGradient x1="2123.5" y1="1115" x2="2123.5" y2="1137" gradientUnits="userSpaceOnUse"
            spreadMethod="reflect" id="fill12">
            <stop offset="0" stop-color="#81B861" />
            <stop offset="0.5" stop-color="#6FB242" />
            <stop offset="1" stop-color="#61A235" />
        </linearGradient>
    </defs>
    <g clip-path="url(#clip0)" transform="translate(-1146 -201)">
        <!-- <rect x="1147" y="202" width="1342" height="990" fill="#FFFFFF" /> -->
        <g>
            <path d="M1817.75 252.542C1876.66 252.542 1934.82 265.816 1987.9 291.378L1817.75 644.703Z"
                fill="url(#fill1)" fill-rule="evenodd" />
        </g>
        <g>
            <path d="M1987.9 291.378C2040.98 316.94 2087.62 354.133 2124.35 400.194L1817.75 644.703Z" fill="url(#fill2)"
                fill-rule="evenodd" />
        </g>
        <g>
            <path
                d="M2124.35 400.194C2259.39 569.527 2231.59 816.268 2062.26 951.306 2039.3 969.615 2014.36 985.287 1987.9 998.027L1817.75 644.703Z"
                fill="url(#fill3)" fill-rule="evenodd" />
        </g>
        <g>
            <path
                d="M1987.9 998.028C1792.77 1092 1558.4 1009.99 1464.43 814.855 1451.68 788.399 1441.96 760.595 1435.42 731.967L1817.75 644.703Z"
                fill="url(#fill4)" fill-rule="evenodd" />
        </g>
        <g>
            <path d="M1435.42 731.967C1394.71 553.59 1482.75 370.763 1647.6 291.378L1817.75 644.703Z" fill="url(#fill5)"
                fill-rule="evenodd" />
        </g>
        <g>
            <path d="M1647.6 291.378C1700.68 265.816 1758.84 252.542 1817.75 252.542L1817.75 644.703Z"
                fill="url(#fill6)" fill-rule="evenodd" />
        </g>
        <g>
            <rect x="1438" y="1115" width="22" height="22" fill="url(#fill7)" />
        </g>
        <g><text fill="#a7a7a8" font-family="Calibri,Calibri_MSFontService,sans-serif" font-weight="400" font-size="41"
                transform="matrix(1 0 0 1 1479.42 1138)">1 € </text></g>
        <g>
            <rect x="1573" y="1115" width="22" height="22" fill="url(#fill8)" />
        </g>
        <g><text fill="#a7a7a8" font-family="Calibri,Calibri_MSFontService,sans-serif" font-weight="400" font-size="41"
                transform="matrix(1 0 0 1 1614.27 1138)">2 € </text></g>
        <g>
            <rect x="1708" y="1115" width="22" height="22" fill="url(#fill9)" />
        </g>
        <g><text fill="#a7a7a8" font-family="Calibri,Calibri_MSFontService,sans-serif" font-weight="400" font-size="41"
                transform="matrix(1 0 0 1 1749.12 1138)">3 € </text></g>
        <g>
            <rect x="1842" y="1115" width="22.9996" height="22" fill="url(#fill10)" />
        </g>
        <g><text fill="#a7a7a8" font-family="Calibri,Calibri_MSFontService,sans-serif" font-weight="400" font-size="41"
                transform="matrix(1 0 0 1 1883.98 1138)">4 € </text></g>
        <g>
            <rect x="1977" y="1115" width="23" height="22" fill="url(#fill11)" />
        </g>
        <g><text fill="#a7a7a8" font-family="Calibri,Calibri_MSFontService,sans-serif" font-weight="400" font-size="41"
                transform="matrix(1 0 0 1 2018.83 1138)">5 € </text></g>
        <g>
            <rect x="2112" y="1115" width="23" height="22" fill="url(#fill12)" />
        </g>
        <g><text fill="#a7a7a8" font-family="Calibri,Calibri_MSFontService,sans-serif" font-weight="400" font-size="41"
                transform="matrix(1 0 0 1 2153.68 1138)">6 € </text></g>
        <!-- <rect x="1147.5" y="202.5" width="1342" height="990" stroke="#E0E5EB" stroke-width="3.4375"
            stroke-linejoin="round" stroke-miterlimit="10" fill="none" /> -->
    </g>
</svg>