<svg xmlns="http://www.w3.org/2000/svg" viewBox="-12 -6 26 13" style="background-color: #232323">
  <!-- The viewBox is set to (-12, -6, 26, 13) which provides a coordinate space of width 38 and height 19 units.
       The center of the SVG is (0, 0). You can adjust this viewBox as needed. -->
  <!-- Add grid lines -->
  <defs>
    <pattern id="grid" width="1" height="1" patternUnits="userSpaceOnUse">
      <path d="M 1 0 L 0 0 0 1" fill="none" stroke="#333333" stroke-width="0.05" />
    </pattern>
  </defs>
  <rect x="-9.9" y="-5.5" width="19.8" height="11" fill="url(#grid)" />

  <!-- Draw the x-axis line -->
  <line x1="-10" y1="0" x2="10" y2="0" stroke="#a7a7a7" stroke-width="0.05" />

  <!-- Draw the x-axis arrowhead -->
  <polygon points="10.5,0 9.8,-0.15 9.8,0.15" fill="#a7a7a7" />

  <!-- Draw the y-axis line -->
  <line x1="0" y1="5" x2="0" y2="-5" stroke="#a7a7a7" stroke-width="0.05" />

  <!-- Draw the y-axis arrowhead -->
  <polygon points="0,-5.5 -0.15,-4.8 0.15,-4.8" fill="#a7a7a7" />

  <!-- Add "x" at the end of the x-axis -->
  <text x="10.7" y="0.7" font-family="serif" font-size="0.9" font-style="italic" fill="#a8a7a7">x</text>

  <!-- Add "y" at the end of the y-axis -->
  <text x="-0.8" y="-5.3" font-family="serif" font-size="0.9" font-style="italic" fill="#a8a7a7">y</text>


  <!-- Add numbers to x-axis-->
  <text x="0.9" y="0.75" font-family="serif" font-size="0.7" fill="#a8a7a7">1</text>

  <!-- Add numbers to y-axis-->
  <text x="-0.75" y="-0.75" font-family="serif" font-size="0.7" fill="#a8a7a7">1</text>


  <path stroke="darkgoldenrod" stroke-width="0.15" fill="none" d="M -1.5 -5 L
      -1.4 -4.7 -1.3 -4.4 -1.2 -4.1 -1.1 -3.8 -1 -3.5
      -0.9 -3.2 -0.8 -2.9 -0.7 -2.6 -0.6 -2.3 -0.5 -2
      -0.4 -1.7 -0.3 -1.4 -0.2 -1.1 -0.1 -0.8 0 -0.5
      0.1 -0.2 0.2 0.1 0.3 0.4 0.4 0.7 0.5 1
      0.6 1.3 0.7 1.6 0.8 1.9 0.9 2.2 1 2.5
      1.1 2.8 1.2 3.1 1.3 3.4 1.4 3.7 1.5 4
      1.6 4.3 1.7 4.6 1.8 4.9" />

  <text x="2.2" y="5" fill="darkgoldenrod" font-family="serif" font-size="0.9" font-style="italic">f</text>

</svg>