<svg xmlns="http://www.w3.org/2000/svg" viewBox="-12 -6 26 13"  style="background-color: #232323">
  <!-- The viewBox is set to (-12, -6, 26, 13) which provides a coordinate space of width 38 and height 19 units.
       The center of the SVG is (0, 0). You can adjust this viewBox as needed. -->
  <!-- Add grid lines -->
  <defs>
    <pattern id="grid" width="1" height="1" patternUnits="userSpaceOnUse">
      <path d="M 1 0 L 0 0 0 1" fill="none" stroke="#333333" stroke-width="0.05" />
    </pattern>
  </defs>
  <rect x="-9.9" y="-5.5" width="19.8" height="11" fill="url(#grid)" />

  <!-- Draw the x-axis line -->
  <line x1="-10" y1="0" x2="10" y2="0" stroke="#a7a7a7" stroke-width="0.05" />

  <!-- Draw the x-axis arrowhead -->
  <polygon points="10.5,0 9.8,-0.15 9.8,0.15" fill="#a7a7a7" />

  <!-- Draw the y-axis line -->
  <line x1="0" y1="5" x2="0" y2="-5" stroke="#a7a7a7" stroke-width="0.05" />

  <!-- Draw the y-axis arrowhead -->
  <polygon points="0,-5.5 -0.15,-4.8 0.15,-4.8" fill="#a7a7a7" />

    <!-- Add "x" at the end of the x-axis -->
  <text x="10.7" y="0.7" font-family="serif" font-size="0.9" font-style="italic" fill="#a8a7a7">x</text>

  <!-- Add "y" at the end of the y-axis -->
  <text x="-0.8" y="-5.3" font-family="serif" font-size="0.9" font-style="italic" fill="#a8a7a7">y</text>


  <!-- Add numbers to x-axis-->
  <text x="0.9" y="0.75" font-family="serif" font-size="0.7" fill="#a8a7a7">1</text>
    
  <!-- Add numbers to y-axis-->
    <text x="-0.75" y="-0.75" font-family="serif" font-size="0.7" fill="#a8a7a7">1</text>

    <circle cx="-3" cy="-2" r="0.2" fill="#008c9c" />
    <text x="-2.5" y="-2.5" fill="#008c9c" font-family="serif" font-size="0.9" font-style="italic">P</text>

    <circle cx="-8" cy="-3" r="0.2" fill="#008c9c" />
    <text x="-7.5" y="-3.5" fill="#008c9c" font-family="serif" font-size="0.9" font-style="italic">Q</text>

    <circle cx="2" cy="1" r="0.2" fill="#008c9c" />
    <text x="1.25" y="2" fill="#008c9c" font-family="serif" font-size="0.9" font-style="italic">S</text>

    <path stroke="#008c9c" stroke-width="0.025" fill="none" stroke-dasharray="0.3"
        d="M -3 -2 L -8 -3"/>
    <!-- <text x="5.15" y="-5" fill="#008c9c" font-family="serif" font-size="0.5" font-style="italic">a</text> -->

    <!-- <path stroke="#008c9c" stroke-width="0.025" fill="none" stroke-dasharray="0.3"
        d="M -9 1 L -8 0.5 -7 0 -6 -0.5 -5 -1
            -4 -1.5 -3 -2 -2 -2.5 -1 -3 0 -3.5
            1 -4 2 -4.5 3 -5"/>
    <text x="3.25" y="-5" fill="#008c9c" font-family="serif" font-size="0.5" font-style="italic">b</text> -->


    <path stroke="darkgoldenrod" stroke-width="0.15" fill="none"
        d="M -9.6 -1.32 L -9.2 -1.24 -8.8 -1.16 -8.4 -1.08 -8 -1
            -7.6 -0.92 -7.2 -0.84 -6.8 -0.76 -6.4 -0.68 -6 -0.6
            -5.6 -0.52 -5.2 -0.44 -4.8 -0.36 -4.4 -0.28 -4 -0.2
            -3.6 -0.12 -3.2 -0.04 -2.8 0.04 -2.4 0.12 -2 0.2
            -1.6 0.28 -1.2 0.36 -0.8 0.44 -0.4 0.52 0 0.6
            0.4 0.68 0.8 0.76 1.2 0.84 1.6 0.92 2 1
            2.4 1.08 2.8 1.16 3.2 1.24 3.6 1.32 4 1.4
            4.4 1.48 4.8 1.56 5.2 1.64 5.6 1.72 6 1.8
            6.4 1.88 6.8 1.96 7.2 2.04 7.6 2.12 8 2.2
            8.4 2.28 8.8 2.36 9.2 2.44 9.6 2.52 10 2.6"/>
    
    <text x="10.5" y="2.85" fill="darkgoldenrod" font-family="serif" font-size="0.9" font-style="italic">k</text>
    <!-- <path stroke="#00dcec" stroke-width="0.05" fill="none"
        d="M -4 0 L -3 0 -3 2" />
    <text x="-2.75" y="1.15" font-family="serif" font-size="0.4" fill="#00dcec">−2</text> -->
</svg>