<svg xmlns="http://www.w3.org/2000/svg" viewBox="-12 -6 26 13"  style="background-color: #232323">
  <!-- The viewBox is set to (-12, -6, 26, 13) which provides a coordinate space of width 38 and height 19 units.
       The center of the SVG is (0, 0). You can adjust this viewBox as needed. -->
  <!-- Add grid lines -->
  <defs>
    <pattern id="grid" width="1" height="1" patternUnits="userSpaceOnUse">
      <path d="M 1 0 L 0 0 0 1" fill="none" stroke="#333333" stroke-width="0.05" />
    </pattern>
  </defs>
  <rect x="-9.9" y="-5.5" width="19.8" height="11" fill="url(#grid)" />

  <!-- Draw the x-axis line -->
  <line x1="-10" y1="0" x2="10" y2="0" stroke="#a7a7a7" stroke-width="0.05" />

  <!-- Draw the x-axis arrowhead -->
  <polygon points="10.5,0 9.8,-0.15 9.8,0.15" fill="#a7a7a7" />

  <!-- Draw the y-axis line -->
  <line x1="0" y1="5" x2="0" y2="-5" stroke="#a7a7a7" stroke-width="0.05" />

  <!-- Draw the y-axis arrowhead -->
  <polygon points="0,-5.5 -0.15,-4.8 0.15,-4.8" fill="#a7a7a7" />

    <!-- Add "x" at the end of the x-axis -->
  <text x="10.7" y="0.7" font-family="serif" font-size="0.9" font-style="italic" fill="#a8a7a7">x</text>

  <!-- Add "y" at the end of the y-axis -->
  <text x="-0.8" y="-5.3" font-family="serif" font-size="0.9" font-style="italic" fill="#a8a7a7">y</text>


  <!-- Add numbers to x-axis-->
  <text x="0.9" y="0.75" font-family="serif" font-size="0.7" fill="#a8a7a7">1</text>
    
  <!-- Add numbers to y-axis-->
    <text x="-0.75" y="-0.75" font-family="serif" font-size="0.7" fill="#a8a7a7">1</text>

    <circle cx="0" cy="2" r="0.2" fill="#008c9c" />
    <!-- <text x="-2.5" y="-2.5" fill="#008c9c" font-family="serif" font-size="0.9" font-style="italic"></text> -->

    <circle cx="-6" cy="" r="0.2" fill="#008c9c" />
    <!-- <text x="-0.5" y="-3.5" fill="#008c9c" font-family="serif" font-size="0.9" font-style="italic"></text> -->


    <path stroke="darkgoldenrod" stroke-width="0.15" fill="none"
        d="M -9.6 -1.2 L -9.2 -1.07 -8.8 -0.93 -8.4 -0.8 -8 -0.67
          -7.6 -0.53 -7.2 -0.4 -6.8 -0.27 -6.4 -0.13 -6 0
          -5.6 0.13 -5.2 0.27 -4.8 0.4 -4.4 0.53 -4 0.67
          -3.6 0.8 -3.2 0.93 -2.8 1.07 -2.4 1.2 -2 1.33
          -1.6 1.47 -1.2 1.6 -0.8 1.73 -0.4 1.87 0 2
          0.4 2.13 0.8 2.27 1.2 2.4 1.6 2.53 2 2.67
          2.4 2.8 2.8 2.93 3.2 3.07 3.6 3.2 4 3.33
          4.4 3.47 4.8 3.6 5.2 3.73 5.6 3.87 6 4
          6.4 4.13 6.8 4.27 7.2 4.4 7.6 4.53 8 4.67
          8.4 4.8 8.8 4.93"/>
    
    <text x="9.5" y="5" fill="darkgoldenrod" font-family="serif" font-size="0.9" font-style="italic">f</text>
    <!-- <path stroke="#00dcec" stroke-width="0.05" fill="none"
        d="M -4 0 L -3 0 -3 2" />
    <text x="-2.75" y="1.15" font-family="serif" font-size="0.4" fill="#00dcec">−2</text> -->
</svg>