<svg xmlns="http://www.w3.org/2000/svg" viewBox="-6 -6 12 13"  style="background-color: #232323">
  <!-- The viewBox is set to (-12, -6, 26, 13) which provides a coordinate space of width 38 and height 19 units.
       The center of the SVG is (0, 0). You can adjust this viewBox as needed. -->
  <!-- Add grid lines -->
 

  <!-- Draw the x-axis line -->
  <line x1="-5" y1="0" x2="5" y2="0" stroke="#a7a7a7" stroke-width="0.05" />

  <!-- Draw the x-axis arrowhead -->
  <polygon points="5.5,0 4.8,-0.15 4.8,0.15" fill="#a7a7a7" />

  <!-- Draw the y-axis line -->
  <line x1="0" y1="5" x2="0" y2="-5" stroke="#a7a7a7" stroke-width="0.05" />

  <!-- Draw the y-axis arrowhead -->
  <polygon points="0,-5.5 -0.15,-4.8 0.15,-4.8" fill="#a7a7a7" />

    <!-- Add "x" at the end of the x-axis -->
  <text x="5.7" y="0.7" font-family="serif" font-size="0.9" font-style="italic" fill="#a8a7a7">x</text>

  <!-- Add "y" at the end of the y-axis -->
  <text x="-0.8" y="-5.3" font-family="serif" font-size="0.9" font-style="italic" fill="#a8a7a7">y</text>

  <!-- Graph of f(x) = x^3 with Clipping Path -->
  <g clip-path="url(#graph-clip)">
    <path d="M 0.1 0 L 0.2 -0.01 0.3 -0.03 0.4 -0.05 0.5 -0.08
            0.6 -0.12 0.7 -0.16 0.8 -0.21 0.9 -0.27 1 -0.33
            1.1 -0.4 1.2 -0.48 1.3 -0.56 1.4 -0.65 1.5 -0.75
            1.6 -0.85 1.7 -0.96 1.8 -1.08 1.9 -1.2 2 -1.33
            2.1 -1.47 2.2 -1.61 2.3 -1.76 2.4 -1.92 2.5 -2.08
            2.6 -2.25 2.7 -2.43 2.8 -2.61 2.9 -2.8 3 -3
            3.1 -3.2 3.2 -3.41 3.3 -3.63 3.4 -3.85 3.5 -4.08
            3.6 -4.32 3.7 -4.56 3.8 -4.81 3.9 -5.07"
          fill="none" stroke="darkgoldenrod" stroke-width="0.1" />
  </g>

</svg>
