<svg xmlns="http://www.w3.org/2000/svg" viewBox="-2 -6 12 12" style="background-color: #232323">
  <!-- The viewBox is set to (-12, -6, 26, 13) which provides a coordinate space of width 38 and height 19 units.
       The center of the SVG is (0, 0). You can adjust this viewBox as needed. -->
  
  <!-- Add grid lines -->
  <defs>
    <pattern id="grid" width="1" height="1" patternUnits="userSpaceOnUse">
      <path d="M 1 0 L 0 0 0 1" fill="none" stroke="#333333" stroke-width="0.05" />
    </pattern>
  </defs>
  <rect x="-1.5" y="-5.5" width="11" height="11" fill="url(#grid)" />
  <!-- Draw the x-axis line -->
  <line x1="-1" y1="0" x2="9" y2="0" stroke="#a7a7a7" stroke-width="0.05" />

  <!-- Draw the x-axis arrowhead -->
  <polygon points="9.5,0 8.8,-0.15 8.8,0.15" fill="#a7a7a7" />

  <!-- Draw the y-axis line -->
  <line x1="0" y1="5" x2="0" y2="-5" stroke="#a7a7a7" stroke-width="0.05" />

  <!-- Draw the y-axis arrowhead -->
  <polygon points="0,-5.5 -0.15,-4.8 0.15,-4.8" fill="#a7a7a7" />

    <!-- Add "x" at the end of the x-axis -->
  <text x="9.25" y="0.7" font-family="serif" font-size="0.9" font-style="italic" fill="#a8a7a7">x</text>

  <!-- Add "y" at the end of the y-axis -->
  <text x="-0.8" y="-5.3" font-family="serif" font-size="0.9" font-style="italic" fill="#a8a7a7">y</text>


  <!-- Add numbers to x-axis-->
  <text x="0.9" y="0.75" font-family="serif" font-size="0.7" fill="#a8a7a7">1</text>
    
  <!-- Add numbers to y-axis-->
    <text x="-0.75" y="-0.75" font-family="serif" font-size="0.7" fill="#a8a7a7">1</text>

  <!-- Add roman number in left upper corner -->
  <text x="-1.4" y="-4" font-family="serif" font-size="1.2" font-style="bold" fill="darkgoldenrod">g)</text>


    <!-- Clipping Path for Function Graphs -->
  <clipPath id="graph-clip">
    <rect x="-1" y="-5.5" width="10.5" height="10.5" />
  </clipPath>

  <!-- Graph of f(x) = x^3 with Clipping Path -->
  <g clip-path="url(#graph-clip)">
    <path d="M 4.0 0.0 L 4.1 -0.22 4.2 -0.32 4.3 -0.39 4.4 -0.45 4.5 -0.5
4.6 -0.55 4.7 -0.59 4.8 -0.63 4.9 -0.67 5 -0.71
5.1 -0.74 5.2 -0.77 5.3 -0.81 5.4 -0.84 5.5 -0.87
5.6 -0.89 5.7 -0.92 5.8 -0.95 5.9 -0.97 6 -1
6.1 -1.02 6.2 -1.05 6.3 -1.07 6.4 -1.1 6.5 -1.12
6.6 -1.14 6.7 -1.16 6.8 -1.18 6.9 -1.2 7 -1.22
7.1 -1.24 7.2 -1.26 7.3 -1.28 7.4 -1.3 7.5 -1.32
7.6 -1.34 7.7 -1.36 7.8 -1.38 7.9 -1.4 8 -1.41
8.1 -1.43 8.2 -1.45 8.3 -1.47 8.4 -1.48 8.5 -1.5
8.6 -1.52 8.7 -1.53 8.8 -1.55 8.9 -1.57 9 -1.58"
          fill="none" stroke="darkgoldenrod" stroke-width="0.1" />
  </g>


</svg>
