<svg xmlns="http://www.w3.org/2000/svg" viewBox="-6 -6 12 12" style="background-color: #232323">
  <!-- The viewBox is set to (-12, -6, 26, 13) which provides a coordinate space of width 38 and height 19 units.
       The center of the SVG is (0, 0). You can adjust this viewBox as needed. -->
  
  <!-- Add grid lines -->
  <defs>
    <pattern id="grid" width="1" height="1" patternUnits="userSpaceOnUse">
      <path d="M 1 0 L 0 0 0 1" fill="none" stroke="#333333" stroke-width="0.05" />
    </pattern>
  </defs>
  <rect x="-5.5" y="-5.5" width="11" height="11" fill="url(#grid)" />
  <!-- Draw the x-axis line -->
  <line x1="-5" y1="0" x2="5" y2="0" stroke="#a7a7a7" stroke-width="0.05" />

  <!-- Draw the x-axis arrowhead -->
  <polygon points="5.5,0 4.8,-0.15 4.8,0.15" fill="#a7a7a7" />

  <!-- Draw the y-axis line -->
  <line x1="0" y1="5" x2="0" y2="-5" stroke="#a7a7a7" stroke-width="0.05" />

  <!-- Draw the y-axis arrowhead -->
  <polygon points="0,-5.5 -0.15,-4.8 0.15,-4.8" fill="#a7a7a7" />

    <!-- Add "x" at the end of the x-axis -->
  <text x="5.25" y="0.7" font-family="serif" font-size="0.9" font-style="italic" fill="#a8a7a7">x</text>

  <!-- Add "y" at the end of the y-axis -->
  <text x="-0.8" y="-5.3" font-family="serif" font-size="0.9" font-style="italic" fill="#a8a7a7">y</text>


  <!-- Add numbers to x-axis-->
  <text x="0.9" y="0.75" font-family="serif" font-size="0.7" fill="#a8a7a7">1</text>
    
  <!-- Add numbers to y-axis-->
    <text x="-0.75" y="-0.75" font-family="serif" font-size="0.7" fill="#a8a7a7">1</text>

  <!-- Add roman number in left upper corner -->
  <text x="-4.4" y="-4" font-family="serif" font-size="1.2" font-style="bold" fill="darkgoldenrod">e)</text>


    <!-- Clipping Path for Function Graphs -->
  <clipPath id="graph-clip">
    <rect x="-5" y="-5.5" width="10.5" height="10.5" />
  </clipPath>

  <!-- Graph of f(x) = x^3 with Clipping Path -->
  <g clip-path="url(#graph-clip)">
    <path d="M -4.86 0.15 L -4.72 0.15 -4.58 0.15 -4.44 0.16 -4.3 0.16
-4.16 0.16 -4.02 0.17 -3.88 0.17 -3.74 0.17 -3.6 0.18
-3.46 0.18 -3.32 0.19 -3.18 0.19 -3.04 0.2 -2.9 0.2
-2.76 0.21 -2.62 0.22 -2.48 0.22 -2.34 0.23 -2.2 0.24
-2.06 0.25 -1.92 0.26 -1.78 0.26 -1.64 0.27 -1.5 0.29
-1.36 0.3 -1.22 0.31 -1.08 0.32 -0.94 0.34 -0.8 0.36
-0.66 0.38 -0.52 0.4 -0.38 0.42 -0.24 0.45 -0.1 0.48
0.04 0.51 0.18 0.55 0.32 0.6 0.46 0.65 0.6 0.71
0.74 0.79 0.88 0.89 1.02 1.02 1.16 1.19 1.3 1.43
1.44 1.79 1.58 2.38 1.72 3.57"
          fill="none" stroke="darkgoldenrod" stroke-width="0.1" />
    <path d="M 2.23 -4.44 L 2.3 -3.33 2.38 -2.67
2.45 -2.22 2.53 -1.9 2.6 -1.67 2.68 -1.48 2.75 -1.33
2.83 -1.21 2.9 -1.11 2.98 -1.03 3.05 -0.95 3.13 -0.89
3.2 -0.83 3.28 -0.78 3.35 -0.74 3.43 -0.7 3.5 -0.67
3.58 -0.63 3.65 -0.61 3.73 -0.58 3.8 -0.56 3.88 -0.53
3.95 -0.51 4.03 -0.49 4.1 -0.48 4.18 -0.46 4.25 -0.44
4.33 -0.43 4.4 -0.42 4.48 -0.4 4.55 -0.39 4.63 -0.38
4.7 -0.37 4.78 -0.36 4.85 -0.35 4.93 -0.34 5 -0.33"
          fill="none" stroke="darkgoldenrod" stroke-width="0.1" />
  </g>


</svg>
