<svg xmlns="http://www.w3.org/2000/svg" viewBox="-6 -6 12 12" style="background-color: #232323">
  <!-- The viewBox is set to (-12, -6, 26, 13) which provides a coordinate space of width 38 and height 19 units.
       The center of the SVG is (0, 0). You can adjust this viewBox as needed. -->
  
  <!-- Add grid lines -->
  <defs>
    <pattern id="grid" width="1" height="1" patternUnits="userSpaceOnUse">
      <path d="M 1 0 L 0 0 0 1" fill="none" stroke="#333333" stroke-width="0.05" />
    </pattern>
  </defs>
  <rect x="-5.5" y="-5.5" width="11" height="11" fill="url(#grid)" />
  <!-- Draw the x-axis line -->
  <line x1="-5" y1="0" x2="5" y2="0" stroke="#a7a7a7" stroke-width="0.05" />

  <!-- Draw the x-axis arrowhead -->
  <polygon points="5.5,0 4.8,-0.15 4.8,0.15" fill="#a7a7a7" />

  <!-- Draw the y-axis line -->
  <line x1="0" y1="5" x2="0" y2="-5" stroke="#a7a7a7" stroke-width="0.05" />

  <!-- Draw the y-axis arrowhead -->
  <polygon points="0,-5.5 -0.15,-4.8 0.15,-4.8" fill="#a7a7a7" />

    <!-- Add "x" at the end of the x-axis -->
  <text x="5.25" y="0.7" font-family="serif" font-size="0.9" font-style="italic" fill="#a8a7a7">x</text>

  <!-- Add "y" at the end of the y-axis -->
  <text x="-0.8" y="-5.3" font-family="serif" font-size="0.9" font-style="italic" fill="#a8a7a7">y</text>


  <!-- Add numbers to x-axis-->
  <text x="0.9" y="0.75" font-family="serif" font-size="0.7" fill="#a8a7a7">1</text>
    
  <!-- Add numbers to y-axis-->
    <text x="-0.75" y="-0.75" font-family="serif" font-size="0.7" fill="#a8a7a7">1</text>

  <!-- Add roman number in left upper corner -->
  <text x="-4.4" y="-2" font-family="serif" font-size="1.2" font-style="bold" fill="darkgoldenrod">h)</text>


    <!-- Clipping Path for Function Graphs -->
  <clipPath id="graph-clip">
    <rect x="-5" y="-5.5" width="10.5" height="10.5" />
  </clipPath>

  <!-- Graph of f(x) = x^3 with Clipping Path -->
  <g clip-path="url(#graph-clip)">
    <path d="M -4.8 -4.8 L -4.6 -4.6 -4.4 -4.4 -4.2 -4.2 -4 -4
-3.8 -3.8 -3.6 -3.6 -3.4 -3.4 -3.2 -3.2 -3 -3
-2.8 -2.8 -2.6 -2.6 -2.4 -2.4 -2.2 -2.2 -2 -2
-1.8 -1.8 -1.6 -1.6 -1.4 -1.4 -1.2 -1.2 -1 -1
-0.8 -0.8 -0.6 -0.6 -0.4 -0.4 -0.2 -0.2 0 0
0.2 -0.2 0.4 -0.4 0.6 -0.6 0.8 -0.8 1 -1
1.2 -1.2 1.4 -1.4 1.6 -1.6 1.8 -1.8 2 -2
2.2 -2.2 2.4 -2.4 2.6 -2.6 2.8 -2.8 3 -3
3.2 -3.2 3.4 -3.4 3.6 -3.6 3.8 -3.8 4 -4
4.2 -4.2 4.4 -4.4 4.6 -4.6 4.8 -4.8 5 -5"
          fill="none" stroke="darkgoldenrod" stroke-width="0.1" />
  </g>


</svg>
