<svg xmlns="http://www.w3.org/2000/svg" viewBox="-6 -6 12 12" style="background-color: #232323">
  <!-- The viewBox is set to (-12, -6, 26, 13) which provides a coordinate space of width 38 and height 19 units.
       The center of the SVG is (0, 0). You can adjust this viewBox as needed. -->
  
  <!-- Add grid lines -->
  <defs>
    <pattern id="grid" width="1" height="1" patternUnits="userSpaceOnUse">
      <path d="M 1 0 L 0 0 0 1" fill="none" stroke="#333333" stroke-width="0.05" />
    </pattern>
  </defs>
  <rect x="-5.5" y="-5.5" width="11" height="11" fill="url(#grid)" />
  <!-- Draw the x-axis line -->
  <line x1="-5" y1="0" x2="5" y2="0" stroke="#a7a7a7" stroke-width="0.05" />

  <!-- Draw the x-axis arrowhead -->
  <polygon points="5.5,0 4.8,-0.15 4.8,0.15" fill="#a7a7a7" />

  <!-- Draw the y-axis line -->
  <line x1="0" y1="5" x2="0" y2="-5" stroke="#a7a7a7" stroke-width="0.05" />

  <!-- Draw the y-axis arrowhead -->
  <polygon points="0,-5.5 -0.15,-4.8 0.15,-4.8" fill="#a7a7a7" />

    <!-- Add "x" at the end of the x-axis -->
  <text x="5.25" y="0.7" font-family="serif" font-size="0.9" font-style="italic" fill="#a8a7a7">x</text>

  <!-- Add "y" at the end of the y-axis -->
  <text x="-0.8" y="-5.3" font-family="serif" font-size="0.9" font-style="italic" fill="#a8a7a7">y</text>


  <!-- Add numbers to x-axis-->
  <text x="0.9" y="0.75" font-family="serif" font-size="0.7" fill="#a8a7a7">1</text>
    
  <!-- Add numbers to y-axis-->
    <text x="-0.75" y="-1.75" font-family="serif" font-size="0.7" fill="#a8a7a7">2</text>

  <!-- Add roman number in left upper corner -->
  <text x="-4.4" y="-4" font-family="serif" font-size="1.2" font-style="bold" fill="darkgoldenrod">XII</text>


    <!-- Clipping Path for Function Graphs -->
  <clipPath id="graph-clip">
    <rect x="-5" y="-5.5" width="10.5" height="10.5" />
  </clipPath>

  <!-- Graph of f(x) = x^3 with Clipping Path -->
  <g clip-path="url(#graph-clip)">
    <path d="M -6 -0.96 C -5.88 -0.92 -5.76 -0.87 -5.64 -0.8 -5.52 -0.72 -5.4 -0.63
                -5.28 -0.54 -5.16 -0.43 -5.04 -0.32 -4.92 -0.21 -4.8 -0.09
                -4.68 0.03 -4.56 0.15 -4.44 0.27 -4.32 0.38 -4.2 0.49
                -4.08 0.59 -3.96 0.68 -3.84 0.77 -3.72 0.84 -3.6 0.9
                -3.48 0.94 -3.36 0.98 -3.24 1 -3.12 1 -3 0.99
                -2.88 0.97 -2.76 0.93 -2.64 0.88 -2.52 0.81 -2.4 0.74
                -2.28 0.65 -2.16 0.56 -2.04 0.45 -1.92 0.34 -1.8 0.23
                -1.68 0.11 -1.56 -0.01 -1.44 -0.13 -1.32 -0.25 -1.2 -0.36
                -1.08 -0.47 -0.96 -0.57 -0.84 -0.67 -0.72 -0.75 -0.6 -0.83
                -0.48 -0.89 -0.36 -0.94 -0.24 -0.97 -0.12 -0.99 0 -1
                0.12 -0.99 0.24 -0.97 0.36 -0.94 0.48 -0.89 0.6 -0.83
                0.72 -0.75 0.84 -0.67 0.96 -0.57 1.08 -0.47 1.2 -0.36
                1.32 -0.25 1.44 -0.13 1.56 -0.01 1.68 0.11 1.8 0.23
                1.92 0.34 2.04 0.45 2.16 0.56 2.28 0.65 2.4 0.74
                2.52 0.81 2.64 0.88 2.76 0.93 2.88 0.97 3 0.99
                3.12 1 3.24 1 3.36 0.98 3.48 0.94 3.6 0.9
                3.72 0.84 3.84 0.77 3.96 0.68 4.08 0.59 4.2 0.49
                4.32 0.38 4.44 0.27 4.56 0.15 4.68 0.03 4.8 -0.09
                4.92 -0.21 5.04 -0.32 5.16 -0.43 5.28 -0.54 5.4 -0.63
                5.52 -0.72 5.64 -0.8 5.76 -0.87 5.88 -0.92 6 -0.96"
          fill="none" stroke="darkgoldenrod" stroke-width="0.1" />
  </g>


</svg>
