<svg xmlns="http://www.w3.org/2000/svg" viewBox="-6 -6 12 12" style="background-color: #232323">
  <!-- The viewBox is set to (-12, -6, 26, 13) which provides a coordinate space of width 38 and height 19 units.
       The center of the SVG is (0, 0). You can adjust this viewBox as needed. -->
  
  <!-- Add grid lines -->
  <defs>
    <pattern id="grid" width="1" height="1" patternUnits="userSpaceOnUse">
      <path d="M 1 0 L 0 0 0 1" fill="none" stroke="#333333" stroke-width="0.05" />
    </pattern>
  </defs>
  <rect x="-5.5" y="-5.5" width="11" height="11" fill="url(#grid)" />
  <!-- Draw the x-axis line -->
  <line x1="-5" y1="0" x2="5" y2="0" stroke="#a7a7a7" stroke-width="0.05" />

  <!-- Draw the x-axis arrowhead -->
  <polygon points="5.5,0 4.8,-0.15 4.8,0.15" fill="#a7a7a7" />

  <!-- Draw the y-axis line -->
  <line x1="0" y1="5" x2="0" y2="-5" stroke="#a7a7a7" stroke-width="0.05" />

  <!-- Draw the y-axis arrowhead -->
  <polygon points="0,-5.5 -0.15,-4.8 0.15,-4.8" fill="#a7a7a7" />

    <!-- Add "x" at the end of the x-axis -->
  <text x="5.25" y="0.7" font-family="serif" font-size="0.9" font-style="italic" fill="#a8a7a7">x</text>

  <!-- Add "y" at the end of the y-axis -->
  <text x="-0.8" y="-5.3" font-family="serif" font-size="0.9" font-style="italic" fill="#a8a7a7">y</text>


  <!-- Add numbers to x-axis-->
  <text x="0.9" y="0.75" font-family="serif" font-size="0.7" fill="#a8a7a7">1</text>
    
  <!-- Add numbers to y-axis-->
    <text x="-0.75" y="-0.75" font-family="serif" font-size="0.7" fill="#a8a7a7">1</text>

  <!-- Add roman number in left upper corner -->
  <text x="-4.4" y="-4" font-family="serif" font-size="1.2" font-style="bold" fill="darkgoldenrod">b)</text>


    <!-- Clipping Path for Function Graphs -->
  <clipPath id="graph-clip">
    <rect x="-5" y="-5.5" width="10.5" height="10.5" />
  </clipPath>

  <!-- Graph of f(x) = x^3 with Clipping Path -->
  <g clip-path="url(#graph-clip)">
    <path d="M 0 0 C 0.1 -0.42 0.2 -0.65 0.3 -0.85 0.4 -1.03 0.5 -1.21
            0.6 -1.37 0.7 -1.54 0.8 -1.69 0.9 -1.85 1 -2
            1.1 -2.15 1.2 -2.3 1.3 -2.44 1.4 -2.58 1.5 -2.72
            1.6 -2.86 1.7 -3 1.8 -3.14 1.9 -3.28 2 -3.41
            2.1 -3.55 2.2 -3.68 2.3 -3.82 2.4 -3.95 2.5 -4.08
            2.6 -4.21 2.7 -4.34 2.8 -4.47 2.9 -4.6 3 -4.73
            3.1 -4.86 3.2 -4.99 3.3 -5.12 3.4 -5.24 3.5 -5.37
            3.6 -5.5 3.7 -5.62 3.8 -5.75 3.9 -5.87 4 -6
            4.1 -6.12 4.2 -6.25 4.3 -6.37 4.4 -6.5 4.5 -6.62
            4.6 -6.74 4.7 -6.87 4.8 -6.99 4.9 -7.11 5 -7.24
            5.1 -7.36 5.2 -7.48 5.3 -7.6 5.4 -7.72 5.5 -7.85
            5.6 -7.97 5.7 -8.09 5.8 -8.21 5.9 -8.33 6 -8.45"
          fill="none" stroke="darkgoldenrod" stroke-width="0.1" />
  </g>


</svg>
