<svg xmlns="http://www.w3.org/2000/svg" viewBox="-6 -6 12 12" style="background-color: #232323">
  <!-- The viewBox is set to (-12, -6, 26, 13) which provides a coordinate space of width 38 and height 19 units.
       The center of the SVG is (0, 0). You can adjust this viewBox as needed. -->
  
  <!-- Add grid lines -->
  <defs>
    <pattern id="grid" width="1" height="1" patternUnits="userSpaceOnUse">
      <path d="M 1 0 L 0 0 0 1" fill="none" stroke="#333333" stroke-width="0.05" />
    </pattern>
  </defs>
  <rect x="-5.5" y="-5.5" width="11" height="11" fill="url(#grid)" />
  <!-- Draw the x-axis line -->
  <line x1="-5" y1="0" x2="5" y2="0" stroke="#a7a7a7" stroke-width="0.05" />

  <!-- Draw the x-axis arrowhead -->
  <polygon points="5.5,0 4.8,-0.15 4.8,0.15" fill="#a7a7a7" />

  <!-- Draw the y-axis line -->
  <line x1="0" y1="5" x2="0" y2="-5" stroke="#a7a7a7" stroke-width="0.05" />

  <!-- Draw the y-axis arrowhead -->
  <polygon points="0,-5.5 -0.15,-4.8 0.15,-4.8" fill="#a7a7a7" />

    <!-- Add "x" at the end of the x-axis -->
  <text x="5.25" y="0.7" font-family="serif" font-size="0.9" font-style="italic" fill="#a8a7a7">x</text>

  <!-- Add "y" at the end of the y-axis -->
  <text x="-0.8" y="-5.3" font-family="serif" font-size="0.9" font-style="italic" fill="#a8a7a7">y</text>


  <!-- Add numbers to x-axis-->
  <text x="0.9" y="0.75" font-family="serif" font-size="0.7" fill="#a8a7a7">1</text>
    
  <!-- Add numbers to y-axis-->
    <text x="-0.75" y="-0.75" font-family="serif" font-size="0.7" fill="#a8a7a7">1</text>

  <!-- Add roman number in left upper corner -->
  <text x="-4.4" y="-4" font-family="serif" font-size="1.2" font-style="bold" fill="darkgoldenrod">XI</text>


    <!-- Clipping Path for Function Graphs -->
  <clipPath id="graph-clip">
    <rect x="-5" y="-5.5" width="10.5" height="10.5" />
  </clipPath>

  <!-- Graph of f(x) = x^3 with Clipping Path -->
  <g clip-path="url(#graph-clip)">
    <path d="M -6 -0.28 C -5.88 -0.39 -5.76 -0.5 -5.64 -0.6 -5.52 -0.69 -5.4 -0.77
                -5.28 -0.84 -5.16 -0.9 -5.04 -0.95 -4.92 -0.98 -4.8 -1
                -4.68 -1 -4.56 -0.99 -4.44 -0.96 -4.32 -0.92 -4.2 -0.87
                -4.08 -0.81 -3.96 -0.73 -3.84 -0.64 -3.72 -0.55 -3.6 -0.44
                -3.48 -0.33 -3.36 -0.22 -3.24 -0.1 -3.12 0.02 -3 0.14
                -2.88 0.26 -2.76 0.37 -2.64 0.48 -2.52 0.58 -2.4 0.68
                -2.28 0.76 -2.16 0.83 -2.04 0.89 -1.92 0.94 -1.8 0.97
                -1.68 0.99 -1.56 1 -1.44 0.99 -1.32 0.97 -1.2 0.93
                -1.08 0.88 -0.96 0.82 -0.84 0.74 -0.72 0.66 -0.6 0.56
                -0.48 0.46 -0.36 0.35 -0.24 0.24 -0.12 0.12 0 0
                0.12 -0.12 0.24 -0.24 0.36 -0.35 0.48 -0.46 0.6 -0.56
                0.72 -0.66 0.84 -0.74 0.96 -0.82 1.08 -0.88 1.2 -0.93
                1.32 -0.97 1.44 -0.99 1.56 -1 1.68 -0.99 1.8 -0.97
                1.92 -0.94 2.04 -0.89 2.16 -0.83 2.28 -0.76 2.4 -0.68
                2.52 -0.58 2.64 -0.48 2.76 -0.37 2.88 -0.26 3 -0.14
                3.12 -0.02 3.24 0.1 3.36 0.22 3.48 0.33 3.6 0.44
                3.72 0.55 3.84 0.64 3.96 0.73 4.08 0.81 4.2 0.87
                4.32 0.92 4.44 0.96 4.56 0.99 4.68 1 4.8 1
                4.92 0.98 5.04 0.95 5.16 0.9 5.28 0.84 5.4 0.77
                5.52 0.69 5.64 0.6 5.76 0.5 5.88 0.39 6 0.28"
          fill="none" stroke="darkgoldenrod" stroke-width="0.1" />
  </g>


</svg>
