<svg xmlns="http://www.w3.org/2000/svg" viewBox="-6 -6 12 12" style="background-color: #232323">
  <!-- The viewBox is set to (-12, -6, 26, 13) which provides a coordinate space of width 38 and height 19 units.
       The center of the SVG is (0, 0). You can adjust this viewBox as needed. -->
  
  <!-- Add grid lines -->
  <defs>
    <pattern id="grid" width="1" height="1" patternUnits="userSpaceOnUse">
      <path d="M 1 0 L 0 0 0 1" fill="none" stroke="#333333" stroke-width="0.05" />
    </pattern>
  </defs>
  <rect x="-5.5" y="-5.5" width="11" height="11" fill="url(#grid)" />
  <!-- Draw the x-axis line -->
  <line x1="-5" y1="0" x2="5" y2="0" stroke="#a7a7a7" stroke-width="0.05" />

  <!-- Draw the x-axis arrowhead -->
  <polygon points="5.5,0 4.8,-0.15 4.8,0.15" fill="#a7a7a7" />

  <!-- Draw the y-axis line -->
  <line x1="0" y1="5" x2="0" y2="-5" stroke="#a7a7a7" stroke-width="0.05" />

  <!-- Draw the y-axis arrowhead -->
  <polygon points="0,-5.5 -0.15,-4.8 0.15,-4.8" fill="#a7a7a7" />

    <!-- Add "x" at the end of the x-axis -->
  <text x="5.25" y="0.7" font-family="serif" font-size="0.9" font-style="italic" fill="#a8a7a7">x</text>

  <!-- Add "y" at the end of the y-axis -->
  <text x="-0.8" y="-5.3" font-family="serif" font-size="0.9" font-style="italic" fill="#a8a7a7">y</text>


  <!-- Add numbers to x-axis-->
  <text x="0.9" y="0.75" font-family="serif" font-size="0.7" fill="#a8a7a7">1</text>
    
  <!-- Add numbers to y-axis-->
    <text x="-0.75" y="-0.75" font-family="serif" font-size="0.7" fill="#a8a7a7">1</text>

  <!-- Add roman number in left upper corner -->
  <text x="-4.4" y="-4" font-family="serif" font-size="1.2" font-style="bold" fill="darkgoldenrod">VIII</text>


    <!-- Clipping Path for Function Graphs -->
  <clipPath id="graph-clip">
    <rect x="-5" y="-5.5" width="10.5" height="10.5" />
  </clipPath>

  <!-- Graph of f(x) = x^3 with Clipping Path -->
  <g clip-path="url(#graph-clip)">
    <path d="M -5 -0.04 C -4.9 -0.04 -4.8 -0.04 -4.7 -0.05 -4.6 -0.05 -4.5 -0.05
            -4.4 -0.05 -4.3 -0.05 -4.2 -0.06 -4.1 -0.06 -4 -0.06
            -3.9 -0.07 -3.8 -0.07 -3.7 -0.07 -3.6 -0.08 -3.5 -0.08
            -3.4 -0.09 -3.3 -0.09 -3.2 -0.1 -3.1 -0.1 -3 -0.11
            -2.9 -0.12 -2.8 -0.13 -2.7 -0.14 -2.6 -0.15 -2.5 -0.16
            -2.4 -0.17 -2.3 -0.19 -2.2 -0.21 -2.1 -0.23 -2 -0.25
            -1.9 -0.28 -1.8 -0.31 -1.7 -0.35 -1.6 -0.39 -1.5 -0.44
            -1.4 -0.51 -1.3 -0.59 -1.2 -0.69 -1.1 -0.83 -1 -1
            -0.9 -1.23 -0.8 -1.56 -0.7 -2.04 -0.6 -2.78 -0.5 -4
            -0.4 -6.25 -0.3 -11.11 -0.2 -25 -0.1 -100"
          fill="none" stroke="darkgoldenrod" stroke-width="0.1" />
    <path d="M 0 -8 C 0.1 -100 0.2 -25 0.3 -11.11 0.4 -6.25 0.5 -4
            0.6 -2.78 0.7 -2.04 0.8 -1.56 0.9 -1.23 1 -1
            1.1 -0.83 1.2 -0.69 1.3 -0.59 1.4 -0.51 1.5 -0.44
            1.6 -0.39 1.7 -0.35 1.8 -0.31 1.9 -0.28 2 -0.25
            2.1 -0.23 2.2 -0.21 2.3 -0.19 2.4 -0.17 2.5 -0.16
            2.6 -0.15 2.7 -0.14 2.8 -0.13 2.9 -0.12 3 -0.11
            3.1 -0.1 3.2 -0.1 3.3 -0.09 3.4 -0.09 3.5 -0.08
            3.6 -0.08 3.7 -0.07 3.8 -0.07 3.9 -0.07 4 -0.06
            4.1 -0.06 4.2 -0.06 4.3 -0.05 4.4 -0.05 4.5 -0.05
            4.6 -0.05 4.7 -0.05 4.8 -0.04 4.9 -0.04 5 -0.04
            5.1 -0.04 5.2 -0.04 5.3 -0.04 5.4 -0.03 5.5 -0.03
            5.6 -0.03 5.7 -0.03 5.8 -0.03 5.9 -0.03 6 -0.03"
          fill="none" stroke="darkgoldenrod" stroke-width="0.1" />
  </g>


</svg>
